HIERARCHY
ROOT RootJoint
{
    OFFSET   0.000000   0.000000   0.000000
    CHANNELS 6 Xposition Yposition Zposition Xrotation Yrotation Zrotation
    JOINT pelvis_lowerback
    {
        OFFSET   0.000000   0.093605   0.000000
        CHANNELS 3 Xrotation Yrotation Zrotation
        JOINT lowerback_torso
        {
            OFFSET   0.000000   0.100000   0.000000
            CHANNELS 3 Xrotation Yrotation Zrotation
            JOINT torso_head
            {
                OFFSET   0.000000   0.282350   0.000000
                CHANNELS 3 Xrotation Yrotation Zrotation
                End Site
                {
                    OFFSET   0.000000   0.192650   0.000000
                }
            }
            JOINT rTorso_Clavicle
            {
                OFFSET  -0.001000   0.157500   0.000000
                CHANNELS 3 Xrotation Yrotation Zrotation
                JOINT rShoulder
                {
                    OFFSET  -0.117647   0.000000   0.000000
                    CHANNELS 3 Xrotation Yrotation Zrotation
                    JOINT rElbow
                    {
                        OFFSET  -0.245000   0.000000   0.000000
                        CHANNELS 3 Xrotation Yrotation Zrotation
                        JOINT rWrist
                        {
                            OFFSET  -0.240000   0.000000   0.000000
                            CHANNELS 3 Xrotation Yrotation Zrotation
                            End Site
                            {
                                OFFSET  -0.116353  -0.002500   0.000000
                            }
                        }
                    }
                }
            }
            JOINT lTorso_Clavicle
            {
                OFFSET   0.001000   0.157500   0.000000
                CHANNELS 3 Xrotation Yrotation Zrotation
                JOINT lShoulder
                {
                    OFFSET   0.117647   0.000000   0.000000
                    CHANNELS 3 Xrotation Yrotation Zrotation
                    JOINT lElbow
                    {
                        OFFSET   0.245000   0.000000   0.000000
                        CHANNELS 3 Xrotation Yrotation Zrotation
                        JOINT lWrist
                        {
                            OFFSET   0.240000   0.000000   0.000000
                            CHANNELS 3 Xrotation Yrotation Zrotation
                            End Site
                            {
                                OFFSET   0.116353  -0.002500   0.000000
                            }
                        }
                    }
                }
            }
        }
    }
    JOINT rHip
    {
        OFFSET  -0.100000  -0.051395   0.000000
        CHANNELS 3 Xrotation Yrotation Zrotation
        JOINT rKnee
        {
            OFFSET   0.000000  -0.410000   0.000000
            CHANNELS 3 Xrotation Yrotation Zrotation
            JOINT rAnkle
            {
                OFFSET   0.000000  -0.390000   0.000000
                CHANNELS 3 Xrotation Yrotation Zrotation
                JOINT rToeJoint
                {
                    OFFSET   0.000000  -0.050000   0.130000
                    CHANNELS 3 Xrotation Yrotation Zrotation
                    End Site
                    {
                        OFFSET  -0.010000   0.002000   0.060000
                    }
                }
            }
        }
    }
    JOINT lHip
    {
        OFFSET   0.100000  -0.051395   0.000000
        CHANNELS 3 Xrotation Yrotation Zrotation
        JOINT lKnee
        {
            OFFSET   0.000000  -0.410000   0.000000
            CHANNELS 3 Xrotation Yrotation Zrotation
            JOINT lAnkle
            {
                OFFSET   0.000000  -0.390000   0.000000
                CHANNELS 3 Xrotation Yrotation Zrotation
                JOINT lToeJoint
                {
                    OFFSET   0.000000  -0.050000   0.130000
                    CHANNELS 3 Xrotation Yrotation Zrotation
                    End Site
                    {
                        OFFSET   0.010000   0.002000   0.060000
                    }
                }
            }
        }
    }
}
MOTION
Frames: 17
Frame Time:   0.008333
 -2.376719   0.925631   3.975860   0.000000   0.000000   0.000000   0.000000   0.000000   0.000000   0.000000   0.000000   0.000000   0.000000   0.000000   0.000000   0.000000   0.000000   0.000000   0.000000   0.000000   0.000000   0.000000   0.000000   0.000000   0.000000   0.000000   0.000000   0.000000   0.000000   0.000000   0.000000   0.000000   0.000000   0.000000   0.000000   0.000000   0.000000   0.000000   0.000000   0.000000   0.000000   0.000000   0.000000   0.000000   0.000000   0.000000   0.000000   0.000000   0.000000   0.000000   0.000000   0.000000   0.000000   0.000000   0.000000   0.000000   0.000000   0.000000   0.000000   0.000000   0.000000   0.000000   0.000000
 -2.376756   0.926073   3.973271  -0.474741  -0.105988   0.172004   0.979614   0.184204  -0.171627   0.158502  -0.339977  -0.152513  -0.454081  -0.647749   0.350994  -0.186062   0.669978   0.146534  -0.179794   0.430578   2.203190   0.014276   0.742175  -0.002132  -0.252130  -1.564804  -2.678928   0.169645  -0.067475  -0.173439   0.680249   0.071030  -2.101044   0.029186  -1.369097   0.018492   0.026978   1.168360   3.157813   0.012544   0.258511  -0.311062   0.672316   0.000825   0.000887  -0.351515   0.214100  -0.000999   0.345946   0.000427   0.001105  -0.571015  -1.000406  -0.012535   2.091869  -0.003444  -0.020142  -0.441108  -0.375642   0.020974  -0.201345   0.000317   0.002606
 -2.376936   0.926820   3.969397  -1.074174  -0.475187   0.373939   2.162690   0.463958  -0.393728   0.546727  -0.574130  -0.358210  -0.864751  -1.288199   0.697626  -0.368801   1.703164   0.928037  -0.393723   1.189595   4.914007   0.035084   1.558947  -0.006649  -0.533131  -2.629610  -4.694655   0.340130  -0.386830  -1.065897   1.312231  -0.093755  -4.640736   0.068209  -2.743156   0.037187   0.070954   1.841652   5.619555  -0.006074   0.523593  -0.739307   1.347800   0.002000   0.000046  -0.677260   0.419041   0.000682   0.663183   0.000979   0.001145  -1.234961  -1.984988   0.074249   4.240672  -0.010850  -0.040995  -0.835913  -0.739717   0.034252  -0.345726   0.000696   0.004242
 -2.377267   0.927501   3.964743  -1.689903  -0.998324   0.581158   3.437368   0.777782  -0.660722   1.048276  -0.727780  -0.608878  -1.233444  -1.890116   1.021415  -0.569744   2.953835   2.085462  -0.664542   2.168576   7.941544   0.057706   2.405491  -0.012239  -0.784625  -3.179043  -5.988266   0.484388  -0.905262  -2.397943   1.879472  -0.441617  -7.379257   0.107754  -4.087167   0.053878   0.134037   2.111738   7.247424  -0.068667   0.766312  -1.239121   1.949854   0.003094  -0.001537  -0.983251   0.608285   0.002860   0.945057   0.001502   0.000653  -1.971931  -2.911893   0.267684   6.227493  -0.020143  -0.056689  -1.204566  -1.080140   0.043701  -0.478784   0.001165   0.005442
 -2.377731   0.927854   3.959686  -2.284869  -1.606571   0.786463   4.754134   1.096643  -0.973408   1.606407  -0.833918  -0.901377  -1.568693  -2.454081   1.321361  -0.805912   4.326398   3.445816  -1.009649   3.293532  11.176898   0.079090   3.256081  -0.017940  -0.990317  -3.342897  -6.763823   0.587446  -1.562758  -3.977019   2.376640  -0.923703 -10.176308   0.143045  -5.389580   0.067806   0.229055   2.075261   8.255425  -0.159966   0.989991  -1.788002   2.481360   0.003974  -0.003156  -1.271265   0.783198   0.005256   1.193192   0.001930   0.000011  -2.761316  -3.784034   0.558655   8.038613  -0.029623  -0.066695  -1.551444  -1.397064   0.050424  -0.610821   0.001713   0.006361
 -2.378303   0.927692   3.954523  -2.842357  -2.260207   0.986411   6.076936   1.405722  -1.328919   2.186428  -0.912498  -1.231462  -1.873796  -2.982270   1.597677  -1.086355   5.750213   4.900547  -1.439703   4.506216  14.551809   0.097485   4.092571  -0.023018  -1.152987  -3.242694  -7.199217   0.640621  -2.305426  -5.679759   2.802514  -1.494984 -12.945580   0.171794  -6.641251   0.078524   0.354655   1.820709   8.841298  -0.262372   1.198200  -2.370510   2.955454   0.004628  -0.004542  -1.541988   0.945248   0.007742   1.412348   0.002245  -0.000604  -3.579183  -4.607028   0.933765   9.689681  -0.038209  -0.071852  -1.877787  -1.691687   0.055117  -0.740970   0.002285   0.007001
 -2.378913   0.926863   3.949478  -3.354346  -2.927107   1.176067   7.379629   1.701348  -1.713651   2.766305  -0.969293  -1.577847  -2.152514  -3.477465   1.846758  -1.413032   7.186473   6.436179  -1.932481   5.705471  17.866169   0.111713   4.907030  -0.027131  -1.281824  -2.953400  -7.335297   0.640832  -3.093371  -7.436630   3.159293  -2.121256 -15.642420   0.193259  -7.836756   0.085884   0.503053   1.416979   9.137652  -0.360400   1.392502  -2.976295   3.384425   0.005100  -0.005596  -1.796072   1.095596   0.010244   1.606658   0.002463  -0.001107  -4.406321  -5.386718   1.376750  11.200035  -0.045259  -0.073191  -2.184404  -1.965470   0.058289  -0.867785   0.002823   0.007370
 -2.379625   0.924769   3.944137  -3.600800  -3.555722   1.225037   8.514417   1.916071  -1.984479   3.188527  -0.895818  -1.877259  -2.352422  -3.965650   2.000520  -1.748079   8.642254   7.602669  -2.399991   6.833284  20.810779   0.117825   5.699218  -0.030975  -1.419798  -2.673890  -6.659803   0.562851  -3.945245  -8.594168   3.107737  -3.035284 -18.253075   0.201846  -9.003756   0.087389   0.439321   1.295234   8.557209  -0.939711   1.367158  -3.343483   3.960399   0.005461  -0.008121  -2.151647   1.405908  -0.238102   1.770734   0.002772  -0.001483  -5.270021  -6.296428   1.965083  12.255131  -0.046807  -0.069929  -3.637028  -2.460602  -0.111425  -0.923181   0.002658   0.006803
 -2.380469   0.923877   3.938830  -3.821741  -4.161976   0.964072   9.668906   2.106036  -2.046850   3.600198  -0.828984  -2.061778  -2.548187  -4.418062   2.147155  -2.130373  10.101907   8.669099  -2.912292   7.935607  23.502001   0.120065   6.464768  -0.033826  -1.532332  -2.289120  -6.114564   0.429039  -4.869745  -9.637085   2.989946  -3.980624 -20.623561   0.203952 -10.129540   0.088492   0.383357   1.066755   8.094071  -1.649298   1.217489  -3.022463   4.860823   0.003445  -0.012800  -2.029310   1.607791  -0.319283   1.925978   0.002202  -0.001997  -5.950900  -7.183185   2.801380  13.144346  -0.045828  -0.064874  -5.007519  -2.920719  -0.281827  -1.025754   0.002772   0.007042
 -2.380889   0.923203   3.933834  -3.957539  -4.670471   0.805301  10.738287   2.220205  -2.192377   3.974068  -0.818428  -2.251486  -2.717826  -4.841454   2.280713  -2.532479  11.492811   9.597611  -3.449114   8.972373  25.991272   0.118729   7.194274  -0.035290  -1.629987  -1.846276  -5.644994   0.260946  -5.806680 -10.496332   2.826918  -4.912192 -22.769477   0.200370 -11.205277   0.088173   0.354269   0.723164   7.738788  -2.318901   1.148637  -2.810723   5.625457   0.002018  -0.014323  -2.089700   1.865716  -0.505649   2.091912   0.001922  -0.002119  -6.603858  -8.019149   3.405468  13.963355  -0.043269  -0.059261  -6.289877  -3.348891  -0.453035  -1.133749   0.002746   0.007178
 -2.380954   0.922593   3.929179  -4.018910  -5.141913   0.685383  11.731216   2.297919  -2.353039   4.302535  -0.840282  -2.440489  -2.872322  -5.236790   2.398923  -2.943929  12.796232  10.413890  -3.996966   9.929003  28.288342   0.114752   7.881525  -0.035422  -1.720276  -1.388903  -5.270902   0.070694  -6.718590 -11.220809   2.631615  -5.802194 -24.720112   0.192746 -12.222793   0.086473   0.340346   0.320397   7.508545  -2.975150   1.101600  -2.653434   6.278765   0.001089  -0.014572  -2.194196   2.115274  -0.691346   2.232319   0.001700  -0.002070  -7.208614  -8.796373   3.873448  14.726935  -0.039927  -0.053822  -7.489198  -3.747372  -0.623892  -1.242242   0.002601   0.007199
 -2.380716   0.921992   3.924875  -4.019485  -5.605799   0.575493  12.652739   2.352076  -2.509358   4.592367  -0.880488  -2.617852  -3.014317  -5.605719   2.505498  -3.354606  14.005494  11.140868  -4.544938  10.801662  30.413968   0.109006   8.524519  -0.034439  -1.807261  -0.944279  -4.980219  -0.129654  -7.583963 -11.841488   2.415914  -6.636206 -26.503841   0.182486 -13.178621   0.083679   0.333307  -0.099029   7.380340  -3.625861   1.063636  -2.519416   6.847938   0.000500  -0.014261  -2.315625   2.351081  -0.868225   2.357589   0.001516  -0.001984  -7.750533  -9.519394   4.252521  15.444686  -0.036253  -0.048881  -8.610087  -4.117806  -0.792491  -1.345647   0.002361   0.007083
 -2.380205   0.921381   3.920913  -3.969795  -6.074906   0.463472  13.508025   2.387736  -2.654680   4.851101  -0.932690  -2.778916  -3.145364  -5.950068   2.602704  -3.755809  15.119338  11.796588  -5.084156  11.590956  32.387057   0.102168   9.123103  -0.032606  -1.893094  -0.528478  -4.753391  -0.331323  -8.392960 -12.379561   2.189014  -7.408578 -28.142343   0.170680 -14.072526   0.080110   0.328603  -0.509853   7.328865  -4.272839   1.030617  -2.394507   7.349422   0.000146  -0.013685  -2.443188   2.572496  -1.034495   2.470930   0.001361  -0.001896  -8.225478 -10.191924   4.565627  16.123457  -0.032501  -0.044521  -9.657248  -4.462037  -0.957622  -1.441748   0.002060   0.006850
 -2.379329   0.920730   3.917711  -4.127992  -6.755583   0.318440  14.423306   2.511944  -2.846911   5.161393  -0.804552  -2.844803  -3.143382  -6.113775   2.697732  -4.095807  16.081434  12.091804  -5.568336  12.126001  33.955510   0.098238   9.981899  -0.032241  -1.950225  -0.160220  -3.947292  -0.572312  -9.239676 -12.512519   1.718112  -8.168190 -29.639478   0.155989 -14.986532   0.075532   0.185754  -0.693262   6.608948  -4.735475   0.987034  -2.297351   7.967707  -0.000056  -0.014952  -2.728811   2.777365  -1.106113   2.492239   0.001104  -0.001620  -7.967193 -10.416698   4.873154  16.167690  -0.026154  -0.035912 -10.167823  -4.654035  -0.858083  -1.424039   0.001611   0.005313
 -2.378093   0.920020   3.914968  -4.220285  -7.427743   0.155016  15.193630   2.586271  -2.989336   5.391209  -0.716520  -2.867621  -3.118710  -6.253930   2.791087  -4.417651  16.922034  12.183465  -6.018952  12.584507  35.283066   0.090692  10.780776  -0.029897  -2.000756   0.224053  -3.312891  -0.819033 -10.033040 -12.445690   1.250770  -8.867500 -30.908689   0.139180 -15.848341   0.070879   0.044036  -0.887249   6.042338  -5.227657   0.927832  -2.200893   8.558375  -0.000116  -0.015815  -3.005678   2.962046  -1.164968   2.503923   0.000893  -0.001354  -7.570962 -10.596769   5.124084  16.196912  -0.020978  -0.028936 -10.641012  -4.831585  -0.766015  -1.375164   0.001235   0.003811
 -2.376521   0.919281   3.912621  -4.241084  -8.099855  -0.021419  15.835203   2.616110  -3.088693   5.532023  -0.674481  -2.854508  -3.095080  -6.384021   2.880786  -4.716495  17.661948  12.148187  -6.436146  12.976923  36.430458   0.081456  11.517639  -0.026272  -2.052399   0.561490  -2.885635  -1.058970 -10.768663 -12.244447   0.798183  -9.501663 -31.995123   0.121998 -16.652508   0.066306  -0.088707  -1.074265   5.698955  -5.745329   0.871796  -2.103812   9.093818  -0.000077  -0.016119  -3.273267   3.134039  -1.218359   2.516212   0.000726  -0.001146  -7.085982 -10.748667   5.318629  16.254246  -0.016839  -0.023561 -11.081295  -4.998811  -0.681901  -1.326754   0.000990   0.002623
 -2.374634   0.918527   3.910615  -4.197397  -8.783331  -0.208769  16.365029   2.610486  -3.150472   5.596750  -0.669527  -2.810384  -3.076659  -6.505930   2.966354  -4.989631  18.315874  12.029976  -6.820542  13.312896  37.436442   0.071750  12.196846  -0.022023  -2.105355   0.844562  -2.616875  -1.289563 -11.450714 -11.951498   0.363105 -10.077584 -32.934447   0.105558 -17.401854   0.061951  -0.213689  -1.246124   5.538739  -6.283935   0.820632  -2.005451   9.569349   0.000025  -0.015990  -3.533350   3.294908  -1.267199   2.528313   0.000594  -0.000980  -6.530710 -10.875589   5.462025  16.340347  -0.013487  -0.019488 -11.490697  -5.156343  -0.605045  -1.279007   0.000842   0.001682
